<svg width="60" height="57" viewBox="0 0 60 57" fill="none" xmlns="http://www.w3.org/2000/svg">
<path d="M18.0352 20.7425C18.0358 19.7134 18.034 18.7174 18.0383 17.7214C18.0405 17.2242 18.0458 17.2224 18.5393 17.2224C25.7103 17.2227 32.8813 17.2235 40.0523 17.2239C40.5614 17.224 41.0705 17.2286 41.5794 17.2192C41.8237 17.2147 41.9429 17.2892 41.9416 17.5593C41.9337 19.1749 41.9382 20.7906 41.9369 22.4063C41.9367 22.6105 41.9424 22.8228 41.6391 22.811C41.3724 22.8007 41.0818 22.8873 41.0249 22.4599C40.917 21.6481 40.635 20.8946 40.1379 20.2346C39.5748 19.4867 38.8153 19.0729 37.8913 18.9703C36.6448 18.8319 35.3928 18.908 34.1439 18.9163C33.3436 18.9217 32.9292 19.3871 32.9289 20.1861C32.927 25.4205 32.927 30.6549 32.9315 35.8893C32.9324 36.8175 33.2537 37.354 33.9275 37.5868C34.151 37.664 34.3851 37.7106 34.6306 37.8184C32.8445 38.7615 31.2574 39.9295 29.9903 41.5835C28.6982 39.9488 27.1317 38.7243 25.2593 37.835C25.4302 37.6846 25.584 37.7081 25.7148 37.6767C26.5198 37.4834 26.9618 36.8879 26.9587 35.9874C26.9507 33.6638 26.9361 31.3401 26.9395 29.0165C26.9423 27.1688 26.9194 25.321 26.9652 23.4732C26.992 22.3907 26.9768 21.307 26.9673 20.224C26.9597 19.3604 26.5445 18.9132 25.6893 18.9129C24.5176 18.9123 23.344 18.8417 22.1739 18.9625C20.9866 19.085 20.0933 19.6565 19.5219 20.7103C19.2349 21.2397 19.0577 21.8073 18.9517 22.4001C18.8777 22.8135 18.7815 22.8603 18.2959 22.8098C17.9353 22.7723 18.0489 22.5 18.0436 22.3028C18.0301 21.7941 18.0367 21.2848 18.0352 20.7425Z" fill="#08274E"/>
<path d="M19.4332 15.4403C18.8659 15.7442 18.3186 16.0341 17.7766 16.3333C17.5571 16.4544 17.3325 16.508 17.0802 16.5053C16.1731 16.4956 15.2658 16.5022 14.3586 16.4978C14.2313 16.4972 14.0934 16.5319 13.9744 16.4366C13.9693 16.2838 14.1061 16.2722 14.1914 16.2247C18.3639 13.8969 22.5434 11.5818 26.7711 9.35519C27.7497 8.83983 28.7267 8.32141 29.698 7.79277C29.9066 7.67929 30.0763 7.67935 30.2846 7.79148C33.5858 9.56876 36.917 11.2899 40.1851 13.1291C42.0258 14.1651 43.8822 15.1733 45.7307 16.1957C45.8331 16.2524 45.9601 16.2842 46.0071 16.4182C45.9201 16.5521 45.786 16.4951 45.6748 16.4955C44.7565 16.4995 43.8381 16.4897 42.92 16.5005C42.6328 16.5039 42.3798 16.4385 42.1299 16.3019C39.1992 14.6996 36.2671 13.0997 33.3329 11.5036C32.3128 10.9487 31.2836 10.4106 30.2645 9.85385C30.069 9.74706 29.9116 9.73396 29.7113 9.84342C26.6932 11.4928 23.6715 13.1358 20.6506 14.7802C20.2523 14.997 19.8538 15.2134 19.4332 15.4403Z" fill="#08274E"/>
<path d="M33.0173 42.3055C32.8129 42.3979 32.6323 42.4815 32.4495 42.5601C32.1777 42.677 31.9749 42.8363 31.8609 43.1392C31.7196 43.5145 31.3938 43.7197 31.0031 43.7997C30.4007 43.9231 29.7884 43.9025 29.1857 43.8405C28.6291 43.7833 28.1691 43.5262 27.997 42.9343C27.9584 42.8015 27.8683 42.738 27.7566 42.6807C26.1552 41.8581 24.447 41.3951 22.6713 41.1471C21.3411 40.9614 20.0065 40.9338 18.6704 41.0261C18.0765 41.0671 17.4871 41.1722 16.8959 41.2494C16.7353 41.2704 16.5751 41.3145 16.3755 41.2514C16.5591 40.8617 16.7473 40.4907 17.0186 40.1982C17.2335 39.9666 17.6025 40.0241 17.9028 39.9949C21.3338 39.6611 24.5966 40.2464 27.6705 41.8253C27.9457 41.9666 28.2105 42.1283 28.4806 42.2796C28.5895 42.3406 28.6876 42.4127 28.718 42.5417C28.7866 42.8325 28.9959 42.9602 29.2663 42.9961C29.7828 43.0647 30.3004 43.0863 30.8146 42.9688C31.001 42.9262 31.1484 42.8281 31.1898 42.636C31.2376 42.4142 31.3936 42.3128 31.5718 42.2111C33.7943 40.9436 36.1746 40.1884 38.7271 39.9705C40.033 39.8591 41.3319 39.8997 42.6301 40.0615C42.8343 40.087 42.9744 40.1731 43.069 40.3617C43.2201 40.6626 43.448 40.9231 43.5911 41.2858C43.0885 41.301 42.6512 41.1743 42.2077 41.1213C40.6534 40.9356 39.1017 40.9325 37.5474 41.1223C36.17 41.2905 34.828 41.5981 33.5298 42.0905C33.3646 42.1532 33.2032 42.2263 33.0173 42.3055Z" fill="#08274E"/>
<path d="M20.884 37.8907C20.2408 37.7221 19.5966 37.7192 18.9233 37.5852C19.1199 37.1747 19.3633 36.8652 19.6015 36.554C19.6778 36.4543 19.7994 36.4803 19.9111 36.4959C21.6032 36.733 23.1968 37.2827 24.7105 38.0578C26.3481 38.8964 27.8035 39.9852 29.0422 41.3532C29.1212 41.4403 29.2352 41.5052 29.2527 41.7315C26.7293 39.8071 23.9741 38.5101 20.884 37.8907Z" fill="#EEB25E"/>
<path d="M36.8276 38.4816C35.6966 38.8504 34.6352 39.3146 33.6062 39.8563C32.591 40.3909 31.6417 41.0279 30.7364 41.7247C30.6437 41.6231 30.7044 41.5753 30.7468 41.5286C33.0498 38.9923 35.8909 37.3856 39.2245 36.6392C40.2755 36.4038 40.2784 36.4171 40.8455 37.3252C40.8859 37.3899 40.9362 37.4504 40.9253 37.5904C39.5485 37.7624 38.1751 38.0078 36.8276 38.4816Z" fill="#EEB25E"/>
<path d="M17.8753 38.8457C18.0532 38.4875 18.3169 38.3804 18.6946 38.3859C22.3089 38.4392 25.5479 39.5696 28.4315 41.7381C28.492 41.7836 28.5436 41.8416 28.595 41.8978C28.6047 41.9084 28.5937 41.938 28.5873 42.0316C25.2031 40.0012 21.5796 39.0168 17.6365 39.345C17.6023 39.1088 17.7819 39.011 17.8753 38.8457Z" fill="#EEB25E"/>
<path d="M37.9861 38.756C39.0871 38.527 40.1698 38.3984 41.2693 38.3853C41.6622 38.3806 41.9293 38.4916 42.0927 38.8473C42.1642 39.0028 42.3331 39.1059 42.3606 39.3473C38.4143 39.0077 34.801 40.0082 31.3673 42.0139C31.774 41.1392 35.6243 39.281 37.9861 38.756Z" fill="#EEB25E"/>
<path d="M19.5275 49.2488C19.4141 49.2395 19.3161 49.2621 19.2571 49.1137C19.8508 48.9434 19.6685 48.4458 19.6931 48.0316C19.7181 47.6125 19.7324 47.1925 19.7398 46.7728C19.7493 46.2351 19.7443 46.235 19.2404 45.9158C19.6697 45.8777 20.012 45.8561 20.3507 45.9106C20.4715 45.93 20.4856 46.1019 20.5335 46.2103C20.8192 46.8554 21.0802 47.5119 21.4237 48.1608C21.5628 48.0556 21.5985 47.9151 21.653 47.7913C21.88 47.2753 22.1173 46.763 22.3193 46.2371C22.424 45.9643 22.579 45.8509 22.8642 45.8848C23.0957 45.9123 23.3395 45.8188 23.5655 45.9337C23.5569 45.9766 23.5589 46.011 23.5476 46.0161C23.0831 46.2259 23.0948 46.2301 23.1218 46.7609C23.1516 47.3458 23.1591 47.9324 23.159 48.5183C23.159 48.7841 23.1767 49.0094 23.5076 49.0464C23.5495 49.0511 23.5886 49.0813 23.6417 49.1055C23.3741 49.2856 22.4071 49.3007 22.1073 49.1667C22.1078 49.1456 22.1033 49.1072 22.1084 49.1059C22.5137 49.0004 22.5193 48.7164 22.4937 48.365C22.457 47.8609 22.4843 47.3521 22.4489 46.837C22.0191 47.625 21.7263 48.4729 21.2484 49.3284C20.7491 48.4973 20.5275 47.6369 20.1013 46.8781C20.0628 46.8809 20.0244 46.8837 19.9859 46.8865C19.9859 47.4889 19.9852 48.0913 19.9863 48.6937C19.9866 48.8571 20.0634 48.9656 20.226 49.0078C20.3093 49.0294 20.4063 49.0321 20.4413 49.1901C20.156 49.3221 19.8476 49.2155 19.5275 49.2488Z" fill="#08274E"/>
<path d="M41.8709 49.2446C41.5517 49.2272 41.2554 49.2956 40.975 49.1926C40.9988 49.0525 41.0784 49.0356 41.1536 49.0208C41.3253 48.9868 41.3892 48.8769 41.389 48.7119C41.3881 47.938 41.3812 47.164 41.3928 46.3902C41.3973 46.0921 41.1145 46.1261 40.8982 45.929C41.4711 45.8298 41.9639 45.8851 42.463 45.8843C42.4551 45.9653 42.4609 45.9929 42.4497 46.007C42.355 46.1264 42.1213 46.082 42.0984 46.2728C42.0603 46.5908 42.0555 46.9125 42.0945 47.2314C42.1073 47.3364 42.2045 47.3622 42.298 47.3629C42.6407 47.3653 42.9834 47.3662 43.326 47.3646C43.4357 47.3642 43.5082 47.3123 43.5498 47.2035C43.7165 46.7676 43.537 46.2091 43.1552 45.993C43.4156 45.802 44.3297 45.7909 44.706 46.0184C44.0927 46.064 44.22 46.4824 44.2171 46.8315C44.2124 47.3953 44.2244 47.9594 44.2117 48.5229C44.2057 48.7911 44.2302 49.0118 44.5551 49.0561C44.598 49.062 44.6382 49.0872 44.657 49.1477C44.137 49.2779 43.6457 49.265 43.1307 49.1664C43.8577 48.8878 43.5005 48.2958 43.5635 47.8404C43.5825 47.7031 43.4716 47.6567 43.3431 47.6578C43.0004 47.6608 42.6576 47.6622 42.3149 47.6612C42.1441 47.6606 42.0788 47.7513 42.0811 47.9109C42.0822 47.9882 42.0719 48.0661 42.0776 48.1429C42.1049 48.5172 41.8873 48.9855 42.5238 49.1253C42.2944 49.3043 42.0905 49.2242 41.8709 49.2446Z" fill="#08274E"/>
<path d="M13.7288 47.7353C14.1187 48.2153 14.3375 48.8133 14.9184 49.1053C14.6303 49.3515 14.1096 49.3143 13.8833 49.0216C13.6132 48.6723 13.3748 48.2985 13.1217 47.9361C13.0529 47.8375 12.9904 47.7055 12.8442 47.7433C12.6827 47.7851 12.742 47.9393 12.7276 48.0523C12.7235 48.085 12.7244 48.1188 12.7272 48.1518C12.7586 48.525 12.5408 48.9986 13.1803 49.1167C12.9092 49.2813 11.924 49.2934 11.6467 49.1669C11.6477 49.1456 11.6449 49.1069 11.6509 49.1055C12.0619 49.0104 12.0659 48.7087 12.0535 48.3707C12.0348 47.8627 12.053 47.3534 12.0474 46.8448C12.0437 46.4992 12.1827 46.082 11.6367 46.0207C11.676 45.8676 11.7674 45.887 11.8375 45.8871C12.3893 45.8876 12.9423 45.8716 13.4925 45.9028C14.0727 45.9357 14.4054 46.2736 14.4003 46.7589C14.397 47.073 14.2588 47.303 13.9915 47.4707C13.8908 47.534 13.7165 47.5323 13.7288 47.7353ZM12.7256 46.9967C12.7542 47.1554 12.6487 47.371 12.9075 47.4326C13.2592 47.5164 13.6219 47.2891 13.6925 46.9422C13.7805 46.5103 13.5537 46.1819 13.1343 46.127C12.8702 46.0924 12.6985 46.1521 12.7256 46.4694C12.7387 46.6229 12.7264 46.7786 12.7256 46.9967Z" fill="#08274E"/>
<path d="M32.649 49.2404C32.0858 49.3435 31.7124 49.1404 31.4545 48.6594C31.3092 48.3882 31.108 48.1469 30.9323 47.8919C30.874 47.8074 30.808 47.7223 30.6937 47.7459C30.5685 47.7718 30.5638 47.8946 30.5613 47.9872C30.554 48.2514 30.5581 48.5164 30.5709 48.7804C30.5766 48.8982 30.6445 48.9852 30.7717 49.0136C30.8622 49.0337 30.9811 49.0175 31.0004 49.2327C30.4895 49.2446 29.9876 49.2834 29.4495 49.1579C30.0572 49.0086 29.898 48.5575 29.9027 48.1834C29.9091 47.6856 29.903 47.1878 29.906 46.69C29.9079 46.3767 29.9675 46.0342 29.5034 46.0354C29.5043 45.8921 29.5796 45.8932 29.6432 45.8931C30.2183 45.8927 30.7955 45.8651 31.3681 45.9038C32.1491 45.9566 32.5136 46.6509 32.1002 47.2353C31.9664 47.4245 31.765 47.5174 31.5152 47.6489C31.8923 48.1223 32.1199 48.6831 32.6449 49.0106C32.7614 49.0832 32.8887 49.1314 32.649 49.2404ZM30.5981 47.2995C30.6153 47.3272 30.6263 47.3709 30.6506 47.3803C30.9326 47.4892 31.1945 47.4554 31.4082 47.2332C31.6031 47.0307 31.6167 46.6365 31.4528 46.3996C31.3039 46.1845 30.9012 46.0504 30.6802 46.1363C30.576 46.1768 30.5644 46.2537 30.5671 46.3483C30.5756 46.6461 30.5807 46.944 30.5981 47.2995Z" fill="#08274E"/>
<path d="M45.6475 46.1335C45.5443 46.0702 45.4228 46.095 45.3334 45.9063C45.8707 45.8935 46.3686 45.8314 46.8826 45.8983C46.8668 45.9806 46.8665 46.0183 46.8581 46.0202C46.4679 46.1095 46.4433 46.3912 46.4577 46.7223C46.4789 47.2079 46.4576 47.6953 46.4744 48.1812C46.4926 48.7073 46.8066 48.9971 47.3207 48.9916C47.8292 48.9862 48.1586 48.6852 48.1756 48.1722C48.1935 47.631 48.1746 47.0888 48.1872 46.5474C48.193 46.293 48.1296 46.1146 47.8512 46.0711C47.7947 46.0623 47.7504 46.0278 47.7464 45.9406C47.9975 45.7369 48.3553 46.0096 48.602 45.7891C48.6079 45.7549 48.6195 45.7312 48.6141 45.7124C48.5591 45.5228 48.5179 45.3348 48.7511 45.2327C48.8992 45.1679 49.0432 45.1953 49.1324 45.3342C49.2616 45.5354 49.2219 45.7352 49.0783 45.9158C49.045 45.9578 48.9976 46.0084 48.9502 46.0162C48.5135 46.088 48.5132 46.4013 48.5226 46.7408C48.5351 47.1937 48.5377 47.6477 48.521 48.1004C48.4958 48.7788 48.1376 49.1691 47.4586 49.2913C46.7648 49.4162 46.0938 49.1304 45.8712 48.6193C45.7941 48.4424 45.7749 48.2584 45.7753 48.0688C45.7767 47.5492 45.7773 47.0296 45.7747 46.51C45.7741 46.3805 45.8008 46.2393 45.6475 46.1335Z" fill="#08274E"/>
<path d="M9.78263 49.2441C9.30933 49.2445 8.86679 49.2445 8.42424 49.2445C8.42163 49.2093 8.41902 49.1742 8.41642 49.139C8.44421 49.1098 8.47123 49.0559 8.4999 49.055C8.92636 49.0418 8.94306 48.758 8.93862 48.4329C8.9279 47.6474 8.92437 46.8615 8.93703 46.0761C8.94149 45.7991 8.84259 45.7126 8.57015 45.7125C8.14079 45.7124 7.79764 45.7972 7.70916 46.29C7.69786 46.3529 7.66648 46.4178 7.52906 46.4422C7.4737 46.1339 7.50556 45.8278 7.55809 45.5281C7.57762 45.4167 7.71876 45.4329 7.8165 45.4327C8.80129 45.4315 9.7861 45.4351 10.7709 45.4293C10.9786 45.4281 11.0855 45.5008 11.0749 45.7165C11.0632 45.9521 11.1161 46.194 11.0324 46.4265C10.8323 46.4141 10.8491 46.2585 10.8061 46.1596C10.648 45.7958 10.1006 45.5758 9.74188 45.737C9.62602 45.789 9.62624 45.8882 9.62616 45.988C9.62553 46.8732 9.62797 47.7584 9.62501 48.6436C9.62426 48.8706 9.72317 48.9956 9.95091 49.0216C10.0364 49.0313 10.1322 49.0354 10.1659 49.1506C10.0825 49.3042 9.93264 49.22 9.78263 49.2441Z" fill="#08274E"/>
<path d="M16.4311 46.7041C16.5249 46.476 16.6064 46.2703 16.6946 46.0675C16.7333 45.9787 16.7616 45.8645 16.8814 45.8567C17.0225 45.8475 17.0596 45.9719 17.1007 46.0712C17.426 46.8578 17.7483 47.6456 18.0703 48.4336C18.186 48.7168 18.2473 49.0401 18.6468 49.1334C18.1499 49.2876 17.6919 49.2698 17.1231 49.1942C17.4227 49.0027 17.6187 48.8467 17.4244 48.5606C17.3293 48.4207 17.3627 48.1679 17.1494 48.1409C16.8447 48.1024 16.5209 48.0594 16.2294 48.1607C16.0508 48.2227 16.0614 48.4785 15.9841 48.6461C15.8791 48.8736 15.9665 48.9994 16.185 49.0723C16.2069 49.0796 16.2162 49.125 16.2565 49.1984C15.8841 49.2839 15.5415 49.2811 15.1685 49.196C15.8878 48.4927 16.0097 47.5373 16.4311 46.7041ZM16.402 47.5541C16.3489 47.8637 16.5118 47.9214 17.0654 47.7687C17.0002 47.4463 16.8987 47.141 16.6998 46.8138C16.5911 47.0822 16.505 47.2948 16.402 47.5541Z" fill="#08274E"/>
<path d="M26.933 46.8434C26.9343 46.7443 26.9458 46.6761 26.9343 46.612C26.9041 46.4447 27.0347 46.2136 26.7685 46.1353C26.5123 46.0599 26.1525 46.234 26.0414 46.4684C25.988 46.5812 25.9972 46.7351 25.8068 46.8051C25.656 46.5252 25.7536 46.2396 25.8187 45.984C25.8627 45.811 26.0898 45.8943 26.2351 45.8926C26.953 45.8843 27.6714 45.9003 28.3887 45.8782C28.7111 45.8682 28.8361 45.9834 28.8067 46.2958C28.7918 46.4531 28.8457 46.6211 28.7545 46.7614C28.5864 46.7594 28.576 46.6422 28.5529 46.5537C28.457 46.1849 28.1742 46.1326 27.858 46.1255C27.6949 46.1218 27.6117 46.1877 27.6123 46.3589C27.6149 47.1443 27.6137 47.9296 27.6145 48.715C27.6147 48.881 27.6895 48.9876 27.8608 49.0151C27.946 49.0289 28.041 49.0291 28.0963 49.2287C27.547 49.262 27.0254 49.2742 26.4904 49.2214C26.5047 49.1428 26.5045 49.1238 26.5088 49.1228C27.0376 48.9938 26.9267 48.5717 26.9293 48.2036C26.9325 47.7611 26.9317 47.3186 26.933 46.8434Z" fill="#08274E"/>
<path d="M50.2873 48.0363C50.6188 49.0321 51.4348 49.2599 52.2303 48.6029C52.2955 48.5491 52.3584 48.4509 52.4522 48.5372C52.5539 48.6306 52.4705 48.7235 52.4134 48.7994C52.1369 49.1665 51.7359 49.2823 51.3067 49.3076C50.3028 49.3669 49.5374 48.6762 49.5009 47.6941C49.4619 46.6425 50.1726 45.8515 51.1817 45.8246C51.4143 45.8184 51.6517 45.8118 51.8685 45.9024C52.0326 45.9709 52.189 45.9346 52.3429 45.9134C52.4783 46.2247 52.4752 46.5977 52.3418 46.8217C52.2289 46.8086 52.2165 46.7088 52.1845 46.6313C52.0276 46.2511 51.7412 46.0559 51.3347 46.0651C50.9028 46.075 50.5713 46.2652 50.3901 46.6737C50.1984 47.1057 50.2274 47.5571 50.2873 48.0363Z" fill="#08274E"/>
<path d="M37.5459 45.8859C38.3693 45.8859 39.1645 45.8966 39.9591 45.8801C40.2224 45.8747 40.3279 45.9564 40.3017 46.2167C40.2837 46.396 40.339 46.5845 40.257 46.7599C40.0798 46.7425 40.0893 46.6098 40.0541 46.5153C39.9924 46.3499 39.8885 46.2381 39.7164 46.1781C39.263 46.0201 39.1116 46.1219 39.1113 46.599C39.1108 47.2292 39.119 47.8595 39.1066 48.4895C39.1008 48.7808 39.1171 49.0286 39.4901 49.0482C39.5088 49.0492 39.5294 49.0685 39.5436 49.0843C39.5574 49.0997 39.564 49.1216 39.5735 49.1408C39.3677 49.2874 38.2799 49.298 38.0079 49.1563C38.0118 49.1356 38.0137 49.0977 38.0205 49.0968C38.4944 49.0352 38.4797 48.696 38.4717 48.3393C38.4585 47.7536 38.475 47.1673 38.4624 46.5816C38.4591 46.4258 38.5639 46.1776 38.3004 46.1471C38.0433 46.1174 37.764 46.1189 37.5917 46.3902C37.5128 46.5145 37.5292 46.6985 37.3106 46.7945C37.2309 46.502 37.2656 46.2266 37.3142 45.9565C37.3293 45.8725 37.4415 45.8899 37.5459 45.8859Z" fill="#08274E"/>
<path d="M33.7881 46.2567C33.6971 46.0826 33.5151 46.088 33.3973 45.9659C33.8954 45.8735 34.3889 45.8369 34.8899 45.8972C34.8866 45.9632 34.8893 46.0017 34.8839 46.0029C34.4584 46.0945 34.4386 46.4023 34.4526 46.7565C34.4718 47.2417 34.4519 47.7282 34.4591 48.2141C34.4646 48.5817 34.3223 49.0249 34.9299 49.1427C34.385 49.2864 33.8821 49.2669 33.3529 49.2108C33.3792 49.1351 33.3864 49.0824 33.3996 49.0809C33.8567 49.0272 33.8253 48.6966 33.8193 48.3669C33.8067 47.6717 33.8057 46.9763 33.7881 46.2567Z" fill="#08274E"/>
<path d="M29.3767 15.9079C29.0917 15.9086 28.8381 15.9024 28.585 15.9114C28.3634 15.9193 28.2579 15.8289 28.2618 15.6028C28.2672 15.2835 28.2652 14.964 28.2629 14.6445C28.2615 14.4457 28.3332 14.3373 28.5546 14.345C28.8737 14.3561 29.1935 14.3524 29.5128 14.346C29.7 14.3423 29.8067 14.4065 29.8042 14.6089C29.7999 14.9503 29.7993 15.2918 29.7993 15.6332C29.7993 15.9123 29.6022 15.9067 29.3767 15.9079Z" fill="#EEB25E"/>
<path d="M29.1226 13.9262C29.0569 13.9258 29.0237 13.9262 28.9905 13.9251C28.2143 13.8999 28.2555 14.076 28.2614 13.1622C28.267 12.2864 28.1705 12.3773 29.0439 12.3791C29.9306 12.3809 29.7903 12.3231 29.8049 13.1488C29.8057 13.193 29.8043 13.2373 29.8038 13.2815C29.7958 13.995 29.8513 13.9173 29.1226 13.9262Z" fill="#EEB25E"/>
<path d="M31.7477 13.4368C31.7595 13.916 31.7595 13.9173 31.3071 13.9212C31.0427 13.9235 30.7781 13.9158 30.5138 13.922C30.3166 13.9266 30.2344 13.8381 30.2371 13.6443C30.2416 13.3137 30.2409 12.9831 30.2357 12.6526C30.2328 12.4727 30.3161 12.3861 30.4915 12.385C30.833 12.3827 31.1745 12.3828 31.516 12.3814C31.6967 12.3806 31.7761 12.476 31.7717 12.6498C31.7652 12.9028 31.7571 13.1559 31.7477 13.4368Z" fill="#EEB25E"/>
<path d="M31.7419 15.5374C31.778 15.797 31.7011 15.9192 31.4435 15.9091C31.1464 15.8975 30.8482 15.9014 30.5508 15.9106C30.3297 15.9174 30.2255 15.8346 30.2329 15.6027C30.2434 15.2723 30.2395 14.9414 30.2361 14.6107C30.2342 14.4329 30.3089 14.3469 30.4915 14.3485C30.8222 14.3513 31.153 14.3521 31.4835 14.3435C31.6814 14.3383 31.7709 14.431 31.7677 14.6186C31.7627 14.9158 31.7507 15.2128 31.7419 15.5374Z" fill="#EEB25E"/>
<path d="M16.4443 49.8277C16.4896 49.5872 16.6257 49.4758 16.8409 49.4929C17.0088 49.5063 17.1265 49.6109 17.1535 49.7821C17.1813 49.9583 17.0843 50.0868 16.9306 50.1432C16.6642 50.241 16.5189 50.0979 16.4443 49.8277Z" fill="#08274E"/>
<path d="M47.8403 44.9434C47.9248 44.9942 47.9534 45.0506 47.9288 45.1216C47.8679 45.2973 47.31 45.6553 47.0933 45.6611C47.1368 45.1921 47.4534 44.8737 47.8403 44.9434Z" fill="#08274E"/>
<path d="M45.8016 9.47433C45.6616 9.33295 45.4823 9.33673 45.3029 9.33726C44.6027 9.33933 43.9026 9.34087 43.2025 9.34107C43.0148 9.34112 42.8181 9.31761 42.8121 9.07996C42.8065 8.85974 43.0293 8.79692 43.1967 8.79809C44.3943 8.80647 45.5655 8.74495 46.7598 8.86116C47.4455 8.92789 47.6957 9.30308 47.6659 10.0909C47.6401 10.7734 47.3678 11.0776 46.7123 11.1292C45.5515 11.2205 44.3882 11.1587 43.226 11.168C43.0355 11.1695 42.8049 11.1494 42.8044 10.8941C42.8039 10.6302 43.0428 10.6303 43.2292 10.6296C43.9172 10.6273 44.6053 10.6375 45.2933 10.643C45.4364 10.6441 45.5786 10.6396 45.7506 10.5434C45.8329 10.4519 45.8741 10.3876 45.9153 10.3233C46.0487 10.0569 46.0393 9.79801 45.8498 9.52336C45.8252 9.49937 45.8016 9.47433 45.8016 9.47433Z" fill="#08274E"/>
<rect x="46.3712" y="9.36877" width="0.856055" height="1.28408" rx="0.428028" fill="#EEB25E"/>
<rect x="43.0182" y="9.51147" width="2.71084" height="0.214014" rx="0.107007" fill="#EEB25E"/>
<path d="M43.1609 9.97517C43.1609 9.91607 43.2089 9.86816 43.268 9.86816H45.7648C45.8239 9.86816 45.8718 9.91607 45.8718 9.97517C45.8718 10.0343 45.8239 10.0822 45.7648 10.0822H43.268C43.2089 10.0822 43.1609 10.0343 43.1609 9.97517Z" fill="#08274E"/>
<rect x="43.0182" y="10.2249" width="2.71084" height="0.214014" rx="0.107007" fill="#EEB25E"/>
<path d="M44.6727 12.2634C44.5327 12.122 44.3534 12.1258 44.174 12.1263C43.4738 12.1284 42.7737 12.1299 42.0736 12.1301C41.8859 12.1302 41.6892 12.1067 41.6832 11.869C41.6776 11.6488 41.9004 11.586 42.0678 11.5872C43.2654 11.5955 44.4366 11.534 45.6309 11.6502C46.3166 11.7169 46.5668 12.0921 46.537 12.8799C46.5112 13.5624 46.2389 13.8667 45.5834 13.9182C44.4225 14.0095 43.2593 13.9477 42.0971 13.957C41.9066 13.9585 41.676 13.9384 41.6755 13.6831C41.6749 13.4193 41.9139 13.4193 42.1003 13.4187C42.7883 13.4163 43.4764 13.4266 44.1644 13.4321C44.3075 13.4332 44.4497 13.4287 44.6217 13.3325C44.704 13.241 44.7452 13.1767 44.7864 13.1123C44.9198 12.8459 44.9104 12.5871 44.7209 12.3124C44.6963 12.2884 44.6727 12.2634 44.6727 12.2634Z" fill="#08274E"/>
<rect x="45.2425" y="12.1578" width="0.856055" height="1.28408" rx="0.428028" fill="#EEB25E"/>
<rect x="41.8895" y="12.3005" width="2.71084" height="0.214014" rx="0.107007" fill="#EEB25E"/>
<path d="M42.0322 12.7642C42.0322 12.7051 42.0801 12.6572 42.1392 12.6572H44.6361C44.6952 12.6572 44.7431 12.7051 44.7431 12.7642C44.7431 12.8233 44.6952 12.8712 44.6361 12.8712H42.1392C42.0801 12.8712 42.0322 12.8233 42.0322 12.7642Z" fill="#08274E"/>
<rect x="41.8895" y="13.0139" width="2.71084" height="0.214014" rx="0.107007" fill="#EEB25E"/>
<path d="M44.6727 6.68514C44.5327 6.54377 44.3534 6.54755 44.174 6.54808C43.4738 6.55015 42.7737 6.55168 42.0736 6.55188C41.8859 6.55194 41.6892 6.52843 41.6832 6.29078C41.6776 6.07055 41.9004 6.00773 42.0678 6.0089C43.2654 6.01728 44.4366 5.95576 45.6309 6.07198C46.3166 6.1387 46.5668 6.5139 46.537 7.30169C46.5112 7.98418 46.2389 8.28843 45.5834 8.33999C44.4225 8.43129 43.2593 8.36949 42.0971 8.37877C41.9066 8.38029 41.676 8.36019 41.6755 8.10487C41.6749 7.84102 41.9139 7.84107 42.1003 7.84043C42.7883 7.83809 43.4764 7.84836 44.1644 7.85382C44.3075 7.85496 44.4497 7.85044 44.6217 7.75422C44.704 7.66273 44.7452 7.59841 44.7864 7.53409C44.9198 7.26769 44.9104 7.00883 44.7209 6.73418C44.6963 6.71019 44.6727 6.68514 44.6727 6.68514Z" fill="#08274E"/>
<rect x="45.2425" y="6.57959" width="0.856055" height="1.28408" rx="0.428028" fill="#EEB25E"/>
<rect x="41.8895" y="6.72229" width="2.71084" height="0.214014" rx="0.107007" fill="#EEB25E"/>
<path d="M42.0322 7.18599C42.0322 7.12689 42.0801 7.07898 42.1392 7.07898H44.6361C44.6952 7.07898 44.7431 7.12689 44.7431 7.18599C44.7431 7.24508 44.6952 7.29299 44.6361 7.29299H42.1392C42.0801 7.29299 42.0322 7.24508 42.0322 7.18599Z" fill="#08274E"/>
<rect x="41.8895" y="7.43567" width="2.71084" height="0.214014" rx="0.107007" fill="#EEB25E"/>
</svg>
